<svg width="560" height="560" viewBox="0 0 560 560" fill="none" xmlns="http://www.w3.org/2000/svg">
<rect width="559.04" height="559.04" rx="32" fill="#121212"/>
<path d="M279.504 56H243.827V249.444H279.504V56Z" fill="white" stroke="white" stroke-linecap="round" stroke-linejoin="round"/>
<path d="M489.182 282.806H157.485V322.056H489.182V282.806Z" fill="white" stroke="white" stroke-linecap="round" stroke-linejoin="round"/>
<path d="M279.504 356.259H243.827V503.04H279.504V356.259Z" fill="white" stroke="white" stroke-linecap="round" stroke-linejoin="round"/>
<path d="M310.191 356.259V503.04H345.868V397.19H424.454V356.259H310.191Z" fill="white" stroke="white" stroke-linecap="round" stroke-linejoin="round"/>
<path d="M310.191 249.445V56H345.868V142.63H503.04V185.804H345.868V249.445H310.191Z" fill="white" stroke="white" stroke-linecap="round" stroke-linejoin="round"/>
<path d="M95.7145 282.732C95.7134 297.525 98.3439 312.173 103.456 325.839C108.568 339.506 116.061 351.924 125.507 362.385C134.954 372.845 146.169 381.143 158.511 386.804C170.854 392.465 184.083 395.379 197.443 395.379V439.386C159.927 439.376 123.95 422.867 97.4256 393.491C70.9009 364.115 56 324.276 56 282.737C56 241.198 70.9009 201.36 97.4256 171.984C123.95 142.608 159.927 126.099 197.443 126.089V170.096C184.084 170.095 170.856 173.009 158.513 178.669C146.171 184.33 134.956 192.626 125.51 203.086C116.063 213.545 108.57 225.962 103.458 239.628C98.3455 253.294 95.7143 267.941 95.7145 282.732Z" fill="white" stroke="white" stroke-linecap="round" stroke-linejoin="round"/>
</svg>
