<svg width="449" height="449" viewBox="0 0 449 449" fill="none" xmlns="http://www.w3.org/2000/svg">
<path d="M224.504 1H188.827V194.444H224.504V1Z" fill="white" stroke="white" stroke-linecap="round" stroke-linejoin="round"/>
<path d="M434.182 227.806H102.485V267.056H434.182V227.806Z" fill="white" stroke="white" stroke-linecap="round" stroke-linejoin="round"/>
<path d="M224.504 301.259H188.827V448.04H224.504V301.259Z" fill="white" stroke="white" stroke-linecap="round" stroke-linejoin="round"/>
<path d="M255.191 301.259V448.04H290.868V342.19H369.454V301.259H255.191Z" fill="white" stroke="white" stroke-linecap="round" stroke-linejoin="round"/>
<path d="M255.191 194.445V1H290.868V87.6298H448.04V130.804H290.868V194.445H255.191Z" fill="white" stroke="white" stroke-linecap="round" stroke-linejoin="round"/>
<path d="M40.7145 227.732C40.7134 242.525 43.3439 257.173 48.4557 270.839C53.5676 284.506 61.0607 296.924 70.5072 307.385C79.9536 317.845 91.1685 326.143 103.511 331.804C115.854 337.465 129.083 340.379 142.443 340.379V384.386C104.927 384.376 68.9504 367.867 42.4256 338.491C15.9009 309.115 1 269.276 1 227.737C1 186.198 15.9009 146.36 42.4256 116.984C68.9504 87.6076 104.927 71.0989 142.443 71.0885V115.096C129.084 115.095 115.856 118.009 103.513 123.669C91.1708 129.33 79.9563 137.626 70.5098 148.086C61.0634 158.545 53.5701 170.962 48.4578 184.628C43.3455 198.294 40.7143 212.941 40.7145 227.732Z" fill="white" stroke="white" stroke-linecap="round" stroke-linejoin="round"/>
</svg>
